<?xml version="1.0" encoding="UTF-8"?>
<svg version="1.1" xmlns="http://www.w3.org/2000/svg" width="250" height="250">
<path d="M0 0 C5.27757889 4.13479606 9.05901075 8.57759628 11.625 14.8125 C11.625 15.8025 11.625 16.7925 11.625 17.8125 C7.67965237 17.33427604 5.03480027 15.99251429 1.76171875 13.75 C-1.52868856 12.30631123 -4.80763143 12.16738848 -8.375 11.8125 C-7.57835937 13.26269531 -7.57835937 13.26269531 -6.765625 14.7421875 C3.76492868 34.07060801 9.25442007 53.03206235 3.859375 75.0703125 C-2.51481693 94.39460321 -13.09303224 110.32849354 -31 120.625 C-34.09429924 122.17214962 -37.00021266 123.07885058 -40.375 123.8125 C-40.375 122.8225 -40.375 121.8325 -40.375 120.8125 C-38.36328125 119.12890625 -38.36328125 119.12890625 -35.6875 117.375 C-21.11171951 107.72259425 -12.40975568 93.3733264 -8.8828125 76.265625 C-6.77640251 61.94203706 -8.84677027 47.79750552 -17.375 35.8125 C-23.47270027 28.29609542 -31.55547029 22.98225952 -41.13671875 21.04296875 C-52.32589446 19.89085467 -61.06207667 22.83905928 -70.375 28.8125 C-72.05577028 30.46494269 -73.72584503 32.12850373 -75.375 33.8125 C-76.035 33.8125 -76.695 33.8125 -77.375 33.8125 C-77.6225 34.34875 -77.87 34.885 -78.125 35.4375 C-79.67196975 38.37674252 -81.50514369 41.07004408 -83.375 43.8125 C-86.7097917 42.44635634 -88.09815847 41.26574439 -89.625 38 C-92.69460509 30.42343504 -92.53712468 22.16669282 -89.8125 14.5 C-85.40952479 5.05194903 -78.30056981 -0.18918091 -69.375 -5.1875 C-68.67890625 -5.5896875 -67.9828125 -5.991875 -67.265625 -6.40625 C-46.3919047 -17.08582783 -18.66345841 -13.00022226 0 0 Z " fill="#030303" transform="translate(190.375,46.1875)"/>
<path d="M0 0 C-1.47834974 3.88906777 -3.42189998 5.07523138 -7 7.0625 C-14.25265879 11.48089608 -20.35464333 17.4704506 -24.65625 24.8359375 C-25.0996875 25.55007812 -25.543125 26.26421875 -26 27 C-26.66 27 -27.32 27 -28 27 C-29.04887695 29.98929931 -30.04175413 32.9809241 -31 36 C-31.35964844 37.12535156 -31.71929687 38.25070313 -32.08984375 39.41015625 C-36.22457628 53.40350371 -36.34294704 66.16909361 -31 80 C-30.01216126 81.67390335 -29.01492785 83.34238145 -28 85 C-28 85.66 -28 86.32 -28 87 C-26.515 87.495 -26.515 87.495 -25 88 C-23.9790625 89.3303125 -23.9790625 89.3303125 -22.9375 90.6875 C-18.31542644 96.50010766 -11.07536143 100.11898928 -4 102 C4.99092203 103.02218832 14.24843346 103.10430353 22 98 C22.68191406 97.56429687 23.36382812 97.12859375 24.06640625 96.6796875 C29.4909457 92.91236029 35.01008807 87.97982386 38 82 C40.3125 82.0625 40.3125 82.0625 43 83 C47.01372443 90.45405966 48.30194311 98.18049796 45.875 106.375 C41.55194077 118.23311108 33.55147436 125.3768022 22.35546875 130.67578125 C4.05627737 137.89746446 -16.02057596 136.45223103 -34 129.125 C-43.37295363 124.5276197 -52.17183263 116.90819791 -56 107 C-56 105.68 -56 104.36 -56 103 C-53.17866274 104.11143589 -50.39676502 105.26810443 -47.625 106.5 C-44.11955987 107.95052695 -40.65177264 108.98900805 -37 110 C-37.45890625 109.16339844 -37.9178125 108.32679688 -38.390625 107.46484375 C-48.23941468 88.78111039 -51.5188542 68.40791594 -46.3125 47.625 C-42.51439551 35.79090602 -37.33701188 24.46845263 -28 16 C-27.08154297 15.09314453 -27.08154297 15.09314453 -26.14453125 14.16796875 C-19.47010194 7.80963263 -9.69598649 0 0 0 Z " fill="#FA0202" transform="translate(102,21)"/>
<path d="M0 0 C1.66666667 0.33333333 3.33333333 0.66666667 5 1 C5.33 0.67 5.66 0.34 6 0 C8.95028374 -0.15387638 11.86098588 -0.23171021 14.8125 -0.25 C15.63298828 -0.270625 16.45347656 -0.29125 17.29882812 -0.3125 C23.32497153 -0.35159907 23.32497153 -0.35159907 26.52734375 1.31640625 C28.61232243 3.70002909 28.72513361 5.90775313 29 9 C29.66 6.03 30.32 3.06 31 0 C32.65 0 34.3 0 36 0 C37 5 37 5 37 19 C49.21 19 61.42 19 74 19 C74 18.01 74 17.02 74 16 C72.82244141 16.05220703 72.82244141 16.05220703 71.62109375 16.10546875 C59.79555967 16.41017576 59.79555967 16.41017576 55 13 C53.7565031 10.25121738 53.28833414 7.9437088 54 5 C56.02734375 2.26171875 56.02734375 2.26171875 59 0 C61.8387401 -0.36771245 64.01820151 -0.48630804 66.8125 -0.3125 C67.50537109 -0.28994141 68.19824219 -0.26738281 68.91210938 -0.24414062 C70.60901573 -0.18562661 72.30479861 -0.0959548 74 0 C74.495 2.475 74.495 2.475 75 5 C72.23547967 6.38226016 69.9538637 6.09525387 66.875 6.0625 C65.77929688 6.05347656 64.68359375 6.04445312 63.5546875 6.03515625 C62.71164063 6.02355469 61.86859375 6.01195312 61 6 C61.495 7.485 61.495 7.485 62 9 C62.96421875 9.03738281 63.9284375 9.07476562 64.921875 9.11328125 C66.81679687 9.21189453 66.81679687 9.21189453 68.75 9.3125 C70.62945312 9.39951172 70.62945312 9.39951172 72.546875 9.48828125 C76.03076463 10.00455901 77.47889796 10.6253256 80 13 C80.02578125 12.39671875 80.0515625 11.7934375 80.078125 11.171875 C80.16320312 9.97304687 80.16320312 9.97304687 80.25 8.75 C80.29640625 7.96109375 80.3428125 7.1721875 80.390625 6.359375 C81.22776005 3.11815981 82.27543535 1.94674539 85 0 C88.53125 -0.49609375 88.53125 -0.49609375 92.5 -0.4375 C94.46453125 -0.43556641 94.46453125 -0.43556641 96.46875 -0.43359375 C100.07456796 0.00915602 101.571332 0.34289293 104 3 C104.609375 4.91015625 104.609375 4.91015625 104.75 7.0625 C104.8015625 7.85011719 104.853125 8.63773438 104.90625 9.44921875 C104.9371875 10.29097656 104.968125 11.13273438 105 12 C105.0515625 12.89332031 105.103125 13.78664062 105.15625 14.70703125 C105.39480157 21.49581123 105.39480157 21.49581123 103.73730469 23.61254883 C101.60974067 25.31167001 100.56878316 25.374445 97.875 25.36328125 C96.69164062 25.36231445 96.69164062 25.36231445 95.484375 25.36132812 C94.66453125 25.34521484 93.8446875 25.32910156 93 25.3125 C91.77023438 25.31733398 91.77023438 25.31733398 90.515625 25.32226562 C84.4009705 25.26731366 84.4009705 25.26731366 81 23 C81 22.34 81 21.68 81 21 C80.34 21 79.68 21 79 21 C79 21.66 79 22.32 79 23 C75.94251476 25.03832349 75.31188386 25.25284082 71.86743164 25.2746582 C70.62583031 25.28895622 70.62583031 25.28895622 69.35914612 25.30354309 C68.46847946 25.30263168 67.57781281 25.30172028 66.66015625 25.30078125 C65.7416539 25.30506638 64.82315155 25.3093515 63.8768158 25.31376648 C61.934243 25.31950944 59.99164871 25.32001029 58.04907227 25.31567383 C55.07726325 25.31251569 52.1064514 25.33596698 49.13476562 25.36132812 C47.24739709 25.3636013 45.36002588 25.36430453 43.47265625 25.36328125 C42.58401382 25.372491 41.6953714 25.38170074 40.77980042 25.39118958 C34.58687814 25.34476396 34.58687814 25.34476396 31.40795898 23.47729492 C30.94333252 22.9897876 30.47870605 22.50228027 30 22 C29.61030029 22.48895752 29.22060059 22.97791504 28.8190918 23.48168945 C26.40212537 25.4990179 25.01169245 25.34702357 21.89453125 25.29296875 C20.91162109 25.28330078 19.92871094 25.27363281 18.91601562 25.26367188 C17.89185547 25.23853516 16.86769531 25.21339844 15.8125 25.1875 C14.25885742 25.16719727 14.25885742 25.16719727 12.67382812 25.14648438 C10.11536301 25.11111389 7.5579422 25.06175544 5 25 C4.67 24.01 4.34 23.02 4 22 C3.59007813 22.48678223 3.18015625 22.97356445 2.7578125 23.47509766 C0.62120313 25.32860629 -0.33671531 25.38532057 -3.125 25.3984375 C-3.91390625 25.40230469 -4.7028125 25.40617187 -5.515625 25.41015625 C-6.33546875 25.39855469 -7.1553125 25.38695312 -8 25.375 C-9.22976562 25.39240234 -9.22976562 25.39240234 -10.484375 25.41015625 C-11.66773438 25.40435547 -11.66773438 25.40435547 -12.875 25.3984375 C-13.59429687 25.39505371 -14.31359375 25.39166992 -15.0546875 25.38818359 C-17.56123007 24.88800755 -18.46415883 24.01250215 -20 22 C-20.1875 19.3125 -20.1875 19.3125 -20 17 C-18.125 16.375 -18.125 16.375 -16 16 C-15.34 16.66 -14.68 17.32 -14 18 C-10.87803664 18.46486718 -10.87803664 18.46486718 -7.375 18.625 C-5.59222656 18.73714844 -5.59222656 18.73714844 -3.7734375 18.8515625 C-2.85820313 18.90054688 -1.94296875 18.94953125 -1 19 C-1.01160156 17.71222656 -1.02320312 16.42445313 -1.03515625 15.09765625 C-1.0445327 13.41927228 -1.05363305 11.74088674 -1.0625 10.0625 C-1.07087891 9.21236328 -1.07925781 8.36222656 -1.08789062 7.48632812 C-1.09272461 6.27299805 -1.09272461 6.27299805 -1.09765625 5.03515625 C-1.10551147 3.91185913 -1.10551147 3.91185913 -1.11352539 2.76586914 C-1 1 -1 1 0 0 Z M10 6 C10 6.33 10 6.66 10 7 C13.96 7 17.92 7 22 7 C22 6.67 22 6.34 22 6 C18.04 6 14.08 6 10 6 Z M87 6 C87 6.99 87 7.98 87 9 C90.96 9 94.92 9 99 9 C99 8.01 99 7.02 99 6 C95.04 6 91.08 6 87 6 Z M10 13 C10 14.98 10 16.96 10 19 C12.97880885 19.99293628 15.01601198 20.13406411 18.125 20.125 C19.01445313 20.12757813 19.90390625 20.13015625 20.8203125 20.1328125 C22.97791088 20.24301985 22.97791088 20.24301985 24 19 C24 17.02 24 15.04 24 13 C19.38 13 14.76 13 10 13 Z M86 15 C86.33 16.65 86.66 18.3 87 20 C90.96 20 94.92 20 99 20 C99.33 18.35 99.66 16.7 100 15 C95.02936879 14.08702692 90.97063121 14.08702692 86 15 Z " fill="#D13A39" transform="translate(56,182)"/>
<path d="M0 0 C1.66666667 0.33333333 3.33333333 0.66666667 5 1 C5.33 0.67 5.66 0.34 6 0 C8.98866642 -0.10011296 11.94910453 -0.13873975 14.9375 -0.125 C16.19336914 -0.13080078 16.19336914 -0.13080078 17.47460938 -0.13671875 C18.67633789 -0.13478516 18.67633789 -0.13478516 19.90234375 -0.1328125 C20.63960693 -0.13168457 21.37687012 -0.13055664 22.13647461 -0.12939453 C24 0 24 0 26 1 C25.67 3.97 25.34 6.94 25 10 C25.66 10 26.32 10 27 10 C27 13.96 27 17.92 27 22 C27.66 22.33 28.32 22.66 29 23 C27 25 27 25 24.75341797 25.22705078 C23.84221191 25.21657715 22.93100586 25.20610352 21.9921875 25.1953125 C21.00605469 25.18886719 20.01992187 25.18242187 19.00390625 25.17578125 C17.45509766 25.15064453 17.45509766 25.15064453 15.875 25.125 C14.83472656 25.11597656 13.79445312 25.10695312 12.72265625 25.09765625 C10.14820908 25.07403747 7.57421788 25.04110149 5 25 C4.67 24.01 4.34 23.02 4 22 C3.59007813 22.48678223 3.18015625 22.97356445 2.7578125 23.47509766 C0.62120313 25.32860629 -0.33671531 25.38532057 -3.125 25.3984375 C-3.91390625 25.40230469 -4.7028125 25.40617187 -5.515625 25.41015625 C-6.33546875 25.39855469 -7.1553125 25.38695312 -8 25.375 C-9.22976562 25.39240234 -9.22976562 25.39240234 -10.484375 25.41015625 C-11.66773438 25.40435547 -11.66773438 25.40435547 -12.875 25.3984375 C-13.59429687 25.39505371 -14.31359375 25.39166992 -15.0546875 25.38818359 C-17.56123007 24.88800755 -18.46415883 24.01250215 -20 22 C-20.1875 19.3125 -20.1875 19.3125 -20 17 C-18.125 16.375 -18.125 16.375 -16 16 C-15.34 16.66 -14.68 17.32 -14 18 C-10.87803664 18.46486718 -10.87803664 18.46486718 -7.375 18.625 C-5.59222656 18.73714844 -5.59222656 18.73714844 -3.7734375 18.8515625 C-2.85820313 18.90054688 -1.94296875 18.94953125 -1 19 C-1.01160156 17.71222656 -1.02320312 16.42445313 -1.03515625 15.09765625 C-1.0445327 13.41927228 -1.05363305 11.74088674 -1.0625 10.0625 C-1.07087891 9.21236328 -1.07925781 8.36222656 -1.08789062 7.48632812 C-1.09272461 6.27299805 -1.09272461 6.27299805 -1.09765625 5.03515625 C-1.10551147 3.91185913 -1.10551147 3.91185913 -1.11352539 2.76586914 C-1 1 -1 1 0 0 Z M10 6 C10 6.33 10 6.66 10 7 C13.96 7 17.92 7 22 7 C22 6.67 22 6.34 22 6 C18.04 6 14.08 6 10 6 Z M23 10 C22.67 10.66 22.34 11.32 22 12 C19.27734375 12.4140625 19.27734375 12.4140625 15.9375 12.625 C14.83277344 12.69976562 13.72804687 12.77453125 12.58984375 12.8515625 C11.73519531 12.90054688 10.88054687 12.94953125 10 13 C10 14.98 10 16.96 10 19 C12.97880885 19.99293628 15.01601198 20.13406411 18.125 20.125 C19.01445313 20.12757813 19.90390625 20.13015625 20.8203125 20.1328125 C22.97791088 20.24301985 22.97791088 20.24301985 24 19 C24.23192865 17.48530552 24.41215238 15.96245438 24.5625 14.4375 C24.64628906 13.61121094 24.73007813 12.78492188 24.81640625 11.93359375 C24.87699219 11.29550781 24.93757813 10.65742188 25 10 C24.34 10 23.68 10 23 10 Z " fill="#C73D43" transform="translate(56,182)"/>
<path d="M0 0 C1.8253125 -0.02513672 1.8253125 -0.02513672 3.6875 -0.05078125 C7.20344869 0.33481218 8.61233403 0.73938424 11 3.3125 C11.609375 5.22265625 11.609375 5.22265625 11.75 7.375 C11.82734375 8.55642578 11.82734375 8.55642578 11.90625 9.76171875 C11.9371875 10.60347656 11.968125 11.44523438 12 12.3125 C12.07734375 13.65248047 12.07734375 13.65248047 12.15625 15.01953125 C12.39485409 21.80980601 12.39485409 21.80980601 10.73510742 23.92285156 C8.62337845 25.6141364 7.58697466 25.69823252 4.91015625 25.7109375 C3.73356445 25.71673828 3.73356445 25.71673828 2.53320312 25.72265625 C1.71787109 25.71105469 0.90253906 25.69945312 0.0625 25.6875 C-1.15469727 25.70490234 -1.15469727 25.70490234 -2.39648438 25.72265625 C-5.8842287 25.70548934 -8.37842824 25.61517012 -11.54296875 24.07421875 C-14.37394579 20.65124114 -13.38992881 16.51309678 -13 12.3125 C-12.19335446 5.23959586 -12.19335446 5.23959586 -11 2.3125 C-7.67393306 -0.24540386 -4.06600744 0.01292163 0 0 Z M-6 6.3125 C-6 7.3025 -6 8.2925 -6 9.3125 C-2.37 9.3125 1.26 9.3125 5 9.3125 C5.33 8.3225 5.66 7.3325 6 6.3125 C2.04 6.3125 -1.92 6.3125 -6 6.3125 Z M-7 15.3125 C-6.67 16.9625 -6.34 18.6125 -6 20.3125 C-2.37 20.3125 1.26 20.3125 5 20.3125 C5.33 18.6625 5.66 17.0125 6 15.3125 C1.71 15.3125 -2.58 15.3125 -7 15.3125 Z " fill="#C71817" transform="translate(200,181.6875)"/>
<path d="M0 0 C1.96453125 0.00193359 1.96453125 0.00193359 3.96875 0.00390625 C7.57456796 0.44665602 9.071332 0.78039293 11.5 3.4375 C12.109375 5.34765625 12.109375 5.34765625 12.25 7.5 C12.32734375 8.68142578 12.32734375 8.68142578 12.40625 9.88671875 C12.4371875 10.72847656 12.468125 11.57023438 12.5 12.4375 C12.57734375 13.77748047 12.57734375 13.77748047 12.65625 15.14453125 C12.89480157 21.93331123 12.89480157 21.93331123 11.23730469 24.05004883 C9.10974067 25.74917001 8.06878316 25.811945 5.375 25.80078125 C4.19164062 25.79981445 4.19164062 25.79981445 2.984375 25.79882812 C2.16453125 25.78271484 1.3446875 25.76660156 0.5 25.75 C-0.72976562 25.75483398 -0.72976562 25.75483398 -1.984375 25.75976562 C-8.0990295 25.70481366 -8.0990295 25.70481366 -11.5 23.4375 C-12.78354243 19.42911888 -12.54870706 15.54204907 -12.3125 11.375 C-12.25707031 10.16714844 -12.20164063 8.95929688 -12.14453125 7.71484375 C-11.5 4.4375 -11.5 4.4375 -9.91796875 2.03125 C-6.53281093 -0.20000104 -4.02308021 -0.05939587 0 0 Z M-5.5 6.4375 C-5.5 7.4275 -5.5 8.4175 -5.5 9.4375 C-1.54 9.4375 2.42 9.4375 6.5 9.4375 C6.5 8.4475 6.5 7.4575 6.5 6.4375 C2.54 6.4375 -1.42 6.4375 -5.5 6.4375 Z M-6.5 15.4375 C-6.17 17.0875 -5.84 18.7375 -5.5 20.4375 C-1.54 20.4375 2.42 20.4375 6.5 20.4375 C6.83 18.7875 7.16 17.1375 7.5 15.4375 C2.52936879 14.52452692 -1.52936879 14.52452692 -6.5 15.4375 Z " fill="#CF0F0E" transform="translate(148.5,181.5625)"/>
<path d="M0 0 C1.06734375 -0.01740234 1.06734375 -0.01740234 2.15625 -0.03515625 C5.13309807 -0.01849479 7.68031999 0.25480436 10.47265625 1.3046875 C13.05773967 4.80876476 12.53480117 8.65024606 12.4375 12.875 C12.44458984 13.74253906 12.45167969 14.61007813 12.45898438 15.50390625 C12.3954212 21.83088704 12.3954212 21.83088704 10.73071289 24.12158203 C8.61627143 25.65290415 7.46759243 25.76124116 4.875 25.7734375 C4.08609375 25.77730469 3.2971875 25.78117187 2.484375 25.78515625 C1.66453125 25.77355469 0.8446875 25.76195312 0 25.75 C-1.22976562 25.76740234 -1.22976562 25.76740234 -2.484375 25.78515625 C-3.66773438 25.77935547 -3.66773438 25.77935547 -4.875 25.7734375 C-5.59429687 25.77005371 -6.31359375 25.76666992 -7.0546875 25.76318359 C-9.60752573 25.25376934 -10.47740749 24.47013883 -12 22.375 C-12.62220375 19.23804041 -12.46358484 16.06683579 -12.4375 12.875 C-12.45748047 12.00746094 -12.47746094 11.13992187 -12.49804688 10.24609375 C-12.49325361 4.04360463 -12.49325361 4.04360463 -10.47265625 1.3046875 C-6.98322606 -0.00729415 -3.67402261 -0.05990254 0 0 Z M-7 6.375 C-7.04125 8.31375 -7.0825 10.2525 -7.125 12.25 C-7.14820313 13.34054688 -7.17140625 14.43109375 -7.1953125 15.5546875 C-7.30060534 18.5121051 -7.30060534 18.5121051 -5 20.375 C-2.3656065 20.65629466 -2.3656065 20.65629466 0.5625 20.5625 C1.55378906 20.55605469 2.54507813 20.54960937 3.56640625 20.54296875 C5.94765872 20.64625434 5.94765872 20.64625434 7 19.375 C7.07258946 17.18860547 7.08373783 14.99999611 7.0625 12.8125 C7.041875 10.688125 7.02125 8.56375 7 6.375 C2.38 6.375 -2.24 6.375 -7 6.375 Z " fill="#CC1B1A" transform="translate(174,181.625)"/>
<path d="M0 0 C1.65 0 3.3 0 5 0 C6.11165232 4.4378561 6.11527763 8.76956386 6.0625 13.3125 C6.05798828 14.05306641 6.05347656 14.79363281 6.04882812 15.55664062 C6.03712175 17.37112899 6.01918898 19.18557534 6 21 C7.05960938 20.98839844 8.11921875 20.97679687 9.2109375 20.96484375 C10.59895658 20.95546524 11.98697755 20.94636511 13.375 20.9375 C14.07367188 20.92912109 14.77234375 20.92074219 15.4921875 20.91210938 C20.7734375 20.88671875 20.7734375 20.88671875 23 22 C23 22.66 23 23.32 23 24 C23.66 24 24.32 24 25 24 C25 23.34 25 22.68 25 22 C31.27 21.67 37.54 21.34 44 21 C44.495 22.98 44.495 22.98 45 25 C39.09182482 25.07417552 33.18392089 25.12861434 27.27539062 25.16479492 C25.26557697 25.17987826 23.25579621 25.20034772 21.24609375 25.22631836 C18.35668824 25.26272144 15.46771804 25.27973088 12.578125 25.29296875 C11.23104462 25.31619453 11.23104462 25.31619453 9.85675049 25.33988953 C5.20121882 25.34114452 2.54629207 25.30707538 -1 22 C-1.99 22 -2.98 22 -4 22 C-4 18.04 -4 14.08 -4 10 C-4.66 10 -5.32 10 -6 10 C-6 7.69 -6 5.38 -6 3 C-5.01 3 -4.02 3 -3 3 C-2.67 4.98 -2.34 6.96 -2 9 C-1.34 6.03 -0.68 3.06 0 0 Z M-8 10 C-7.34 10.33 -6.68 10.66 -6 11 C-6.33 11.66 -6.66 12.32 -7 13 C-7.66 12.67 -8.32 12.34 -9 12 C-8.67 11.34 -8.34 10.68 -8 10 Z " fill="#C62A2A" transform="translate(87,182)"/>
<path d="M0 0 C3.5076988 2.05167288 5.40094441 3.27573417 6.73828125 7.125 C7.46165152 11.45060806 7.24532929 13.52626067 5.1875 17.5 C3.01287319 19.98528778 2.20795071 20.83387711 -0.98828125 21.2734375 C-5.27027177 21.46054969 -7.37508572 21.42962856 -11 18.9375 C-13.38348169 15.43676127 -13.92463735 13.22030829 -14 9 C-13.0534468 5.52930495 -11.81844694 3.25475755 -9 1 C-5.61670875 -0.12776375 -3.54843366 -0.41746278 0 0 Z " fill="#C9CAC9" transform="translate(128,84)"/>
<path d="M0 0 C2.3125 0.0625 2.3125 0.0625 5 1 C8.42910313 7.36833438 9.13984791 12.86775682 9 20 C8.34 20 7.68 20 7 20 C7 17.03 7 14.06 7 11 C6.34 11 5.68 11 5 11 C5 9.02 5 7.04 5 5 C4.34 5 3.68 5 3 5 C3 4.34 3 3.68 3 3 C2.34 3 1.68 3 1 3 C1 4.65 1 6.3 1 8 C0.38125 8.2475 -0.2375 8.495 -0.875 8.75 C-3.35068687 10.20628639 -3.95125002 11.37812506 -5 14 C-5.66 14 -6.32 14 -7 14 C-7 14.66 -7 15.32 -7 16 C-9.31 16.66 -11.62 17.32 -14 18 C-14 18.66 -14 19.32 -14 20 C-20.92613125 24.61742083 -27.87578923 24.25510831 -35.9375 24.125 C-37.00291016 24.11597656 -38.06832031 24.10695313 -39.16601562 24.09765625 C-41.77758034 24.07423414 -44.38866937 24.04143452 -47 24 C-47 23.34 -47 22.68 -47 22 C-48.32 22 -49.64 22 -51 22 C-51 21.34 -51 20.68 -51 20 C-52.32 20 -53.64 20 -55 20 C-55 19.34 -55 18.68 -55 18 C-55.66 18 -56.32 18 -57 18 C-57 17.34 -57 16.68 -57 16 C-58.32 16 -59.64 16 -61 16 C-61 14.68 -61 13.36 -61 12 C-62.32 12 -63.64 12 -65 12 C-65.66 9.69 -66.32 7.38 -67 5 C-67.66 5 -68.32 5 -69 5 C-69 4.01 -69 3.02 -69 2 C-68.01 2.33 -67.02 2.66 -66 3 C-66 3.66 -66 4.32 -66 5 C-65.01 5.33 -64.02 5.66 -63 6 C-62.319375 6.886875 -61.63875 7.77375 -60.9375 8.6875 C-56.31542644 14.50010766 -49.07536143 18.11898928 -42 20 C-33.00907797 21.02218832 -23.75156654 21.10430353 -16 16 C-15.31808594 15.56429687 -14.63617188 15.12859375 -13.93359375 14.6796875 C-8.5090543 10.91236029 -2.98991193 5.97982386 0 0 Z " fill="#C70E0F" transform="translate(140,103)"/>
<path d="M0 0 C1.26166992 0.00580078 1.26166992 0.00580078 2.54882812 0.01171875 C3.38607422 0.00785156 4.22332031 0.00398437 5.0859375 0 C5.88708984 0.00128906 6.68824219 0.00257813 7.51367188 0.00390625 C8.25093506 0.00503418 8.98819824 0.00616211 9.74780273 0.00732422 C11.61132812 0.13671875 11.61132812 0.13671875 13.61132812 1.13671875 C13.28132813 4.10671875 12.95132813 7.07671875 12.61132812 10.13671875 C11.95132813 10.13671875 11.29132813 10.13671875 10.61132812 10.13671875 C10.28132813 11.12671875 9.95132813 12.11671875 9.61132812 13.13671875 C5.65132812 13.13671875 1.69132812 13.13671875 -2.38867188 13.13671875 C-2.40929687 14.41546875 -2.42992188 15.69421875 -2.45117188 17.01171875 C-2.46277344 17.73101562 -2.474375 18.4503125 -2.48632812 19.19140625 C-2.51516429 21.21857279 -2.51516429 21.21857279 -1.38867188 23.13671875 C-3.03867188 23.13671875 -4.68867187 23.13671875 -6.38867188 23.13671875 C-7.29447143 15.82562235 -7.80136442 8.50449446 -7.38867188 1.13671875 C-5.44916048 -0.80279265 -2.57660068 0.00415246 0 0 Z M-2.38867188 6.13671875 C-2.38867188 6.46671875 -2.38867188 6.79671875 -2.38867188 7.13671875 C1.57132813 7.13671875 5.53132813 7.13671875 9.61132812 7.13671875 C9.61132812 6.80671875 9.61132812 6.47671875 9.61132812 6.13671875 C5.65132812 6.13671875 1.69132812 6.13671875 -2.38867188 6.13671875 Z " fill="#CB1311" transform="translate(68.388671875,181.86328125)"/>
<path d="M0 0 C-1.47834974 3.88906777 -3.42189998 5.07523138 -7 7.0625 C-14.25265879 11.48089608 -20.35464333 17.4704506 -24.65625 24.8359375 C-25.0996875 25.55007812 -25.543125 26.26421875 -26 27 C-26.66 27 -27.32 27 -28 27 C-31.12082041 35.86970011 -33.52567589 44.93399823 -36 54 C-36.33 54 -36.66 54 -37 54 C-37.2361959 47.59646678 -36.823321 42.15370839 -35 36 C-34.34 36 -33.68 36 -33 36 C-32.855625 35.05125 -32.71125 34.1025 -32.5625 33.125 C-32 30 -32 30 -31 28 C-30.34 28 -29.68 28 -29 28 C-29 26.68 -29 25.36 -29 24 C-30.32 23.67 -31.64 23.34 -33 23 C-28.78937566 12.66483116 -15.60767919 5.50880063 -6 1 C-3.8608447 0.35407389 -2.22947195 0 0 0 Z " fill="#E00909" transform="translate(102,21)"/>
<path d="M0 0 C2.9375 1.5625 2.9375 1.5625 5 4 C5.625 7.5 5.625 7.5 5 11 C2.27151928 14.22456813 0.62057913 14.91290117 -3.5625 15.5 C-7 15 -7 15 -9.4375 13.4375 C-11.60396028 10.05782196 -11.56288002 7.94016013 -11 4 C-8.10445004 -0.51705794 -5.12679803 -0.7195506 0 0 Z " fill="#CBC7C8" transform="translate(110,101)"/>
<path d="M0 0 C2.55078958 2.22165544 2.93332671 3.60829443 3.5 6.9375 C3 10 3 10 0.9375 12.9375 C-2 15 -2 15 -5.625 15 C-10.3943662 13.58685446 -10.3943662 13.58685446 -12 11 C-12.9375 8.125 -12.9375 8.125 -13 5 C-9.20078453 -0.89533435 -6.77816973 -1.54589836 0 0 Z " fill="#C9CBCB" transform="translate(147,75)"/>
<path d="M0 0 C0.99 0 1.98 0 3 0 C3 5.94 3 11.88 3 18 C3.66 18 4.32 18 5 18 C3.125 21.875 3.125 21.875 2 23 C-0.97104013 23.15357265 -3.90277553 23.23168121 -6.875 23.25 C-8.11830078 23.2809375 -8.11830078 23.2809375 -9.38671875 23.3125 C-10.18464844 23.31765625 -10.98257813 23.3228125 -11.8046875 23.328125 C-12.53671387 23.3374707 -13.26874023 23.34681641 -14.02294922 23.35644531 C-16.56958948 22.8973079 -17.4521229 22.04085086 -19 20 C-19.1875 17.3125 -19.1875 17.3125 -19 15 C-17.125 14.375 -17.125 14.375 -15 14 C-14.34 14.66 -13.68 15.32 -13 16 C-9.87803664 16.46486718 -9.87803664 16.46486718 -6.375 16.625 C-4.27125 16.74875 -2.1675 16.8725 0 17 C0 11.39 0 5.78 0 0 Z " fill="#BE2828" transform="translate(55,184)"/>
<path d="M0 0 C2.475 0.99 2.475 0.99 5 2 C5 3.32 5 4.64 5 6 C4.34 6 3.68 6 3 6 C2.34 8.64 1.68 11.28 1 14 C0.34 14 -0.32 14 -1 14 C-0.938125 14.763125 -0.87625 15.52625 -0.8125 16.3125 C-1.07323155 21.44022041 -2.53498808 26.09918633 -4 31 C-4.33 31 -4.66 31 -5 31 C-5 27.37 -5 23.74 -5 20 C-5.66 20 -6.32 20 -7 20 C-7.99 23.3 -8.98 26.6 -10 30 C-10.33 30 -10.66 30 -11 30 C-12.09788227 18.80160088 -6.56861506 8.73558085 0 0 Z " fill="#EE0606" transform="translate(68,43)"/>
<path d="M0 0 C3.5875213 1.33250791 6.8364623 2.830717 10 5 C10 5.66 10 6.32 10 7 C8.68 7 7.36 7 6 7 C6.33 8.32 6.66 9.64 7 11 C7.66 11 8.32 11 9 11 C9 11.66 9 12.32 9 13 C9.66 13 10.32 13 11 13 C11 13.66 11 14.32 11 15 C11.66 15 12.32 15 13 15 C13 15.66 13 16.32 13 17 C13.66 17 14.32 17 15 17 C15 17.66 15 18.32 15 19 C16.32 19 17.64 19 19 19 C19 19.66 19 20.32 19 21 C19.66 21 20.32 21 21 21 C21 21.66 21 22.32 21 23 C22.98 23 24.96 23 27 23 C27 23.66 27 24.32 27 25 C28.32 25.33 29.64 25.66 31 26 C31 26.66 31 27.32 31 28 C32.32 27.67 33.64 27.34 35 27 C35 27.66 35 28.32 35 29 C23.17752001 28.14018327 14.10028365 22.69244997 6.1875 14 C2.45226814 9.53136645 0 5.96630829 0 0 Z " fill="#D40A0F" transform="translate(46,124)"/>
<path d="M0 0 C0.69287109 0.02255859 1.38574219 0.04511719 2.09960938 0.06835938 C3.79651573 0.12687339 5.49229861 0.2165452 7.1875 0.3125 C7.5175 1.9625 7.8475 3.6125 8.1875 5.3125 C5.42297967 6.69476016 3.1413637 6.40775387 0.0625 6.375 C-1.03320312 6.36597656 -2.12890625 6.35695312 -3.2578125 6.34765625 C-4.10085937 6.33605469 -4.94390625 6.32445312 -5.8125 6.3125 C-5.4825 7.6325 -5.1525 8.9525 -4.8125 10.3125 C-5.4725 10.3125 -6.1325 10.3125 -6.8125 10.3125 C-6.8125 10.9725 -6.8125 11.6325 -6.8125 12.3125 C-8.4625 12.6425 -10.1125 12.9725 -11.8125 13.3125 C-13.08203125 7.55078125 -13.08203125 7.55078125 -12.8125 5.3125 C-9.1532639 0.28105037 -5.91960344 -0.368205 0 0 Z " fill="#B91715" transform="translate(122.8125,181.6875)"/>
<path d="M0 0 C0.66 0.33 1.32 0.66 2 1 C2.08121924 2.60332791 2.13929134 4.20784026 2.1875 5.8125 C2.23970703 7.15248047 2.23970703 7.15248047 2.29296875 8.51953125 C2 11 2 11 1 12.8125 C-2.20653303 14.71637898 -5.57591292 14.31051476 -9.1875 14.1875 C-10.31188477 14.16719727 -10.31188477 14.16719727 -11.45898438 14.14648438 C-13.30629767 14.11118539 -15.15324066 14.05737917 -17 14 C-17 13.67 -17 13.34 -17 13 C-10.565 12.505 -10.565 12.505 -4 12 C-8.29 11.67 -12.58 11.34 -17 11 C-16.67 10.01 -16.34 9.02 -16 8 C-12.37 8 -8.74 8 -5 8 C-4.67 6.68 -4.34 5.36 -4 4 C-8.29 4 -12.58 4 -17 4 C-17 3.34 -17 2.68 -17 2 C-11.49017726 0.62254432 -5.45954909 0.1801503 0 2 C0 1.34 0 0.68 0 0 Z " fill="#D14341" transform="translate(210,193)"/>
<path d="M0 0 C1.32 0 2.64 0 4 0 C4 0.99 4 1.98 4 3 C-9.21835657 8.26688869 -20.93786908 9.29673899 -35 9 C-35 8.01 -35 7.02 -35 6 C-33.92878906 5.93941406 -32.85757813 5.87882813 -31.75390625 5.81640625 C-30.35675609 5.73201463 -28.95962143 5.64736594 -27.5625 5.5625 C-26.50192383 5.50352539 -26.50192383 5.50352539 -25.41992188 5.44335938 C-21.91309581 5.52375562 -21.91309581 5.52375562 -19 4 C-16.16027465 3.67648699 -13.31926263 3.4869571 -10.46875 3.28125 C-8.0586395 3.26614735 -8.0586395 3.26614735 -7 2 C-4.66702567 1.95907063 -2.33294775 1.95758277 0 2 C0 1.34 0 0.68 0 0 Z " fill="#D30B07" transform="translate(124,147)"/>
<path d="M0 0 C2.3125 0.0625 2.3125 0.0625 5 1 C8.42910313 7.36833438 9.13984791 12.86775682 9 20 C8.34 20 7.68 20 7 20 C7 17.03 7 14.06 7 11 C6.34 11 5.68 11 5 11 C5 9.02 5 7.04 5 5 C4.34 5 3.68 5 3 5 C3 4.34 3 3.68 3 3 C2.34 3 1.68 3 1 3 C1 4.65 1 6.3 1 8 C0.38125 8.2475 -0.2375 8.495 -0.875 8.75 C-3.35068687 10.20628639 -3.95125002 11.37812506 -5 14 C-5.66 14 -6.32 14 -7 14 C-7 14.66 -7 15.32 -7 16 C-9.90600261 17.25664978 -11.79604584 18 -15 18 C-13.59315441 14.68850192 -11.9806275 12.92520635 -9.1875 10.6875 C-5.3591554 7.46583296 -2.72985756 4.18009438 0 0 Z " fill="#CE090C" transform="translate(140,103)"/>
<path d="M0 0 C2.375 1.375 2.375 1.375 4.375 4.375 C4.75 6.875 4.75 6.875 4.375 9.375 C2.75 11.25 2.75 11.25 0.375 12.375 C-2.75 12.25 -2.75 12.25 -5.625 11.375 C-7.625 8.375 -7.625 8.375 -7.5 5.375 C-6.625 2.375 -6.625 2.375 -4.875 0.375 C-2.625 -0.625 -2.625 -0.625 0 0 Z " fill="#CDCAC6" transform="translate(91.625,97.625)"/>
<path d="M0 0 C-1.48692981 3.95368619 -3.57852758 5.19910809 -7.1875 7.25 C-11.9442234 10.1239836 -15.21357525 13.08388539 -18.5625 17.49609375 C-19.2740625 18.24052734 -19.2740625 18.24052734 -20 19 C-20.99 19 -21.98 19 -23 19 C-22.71172213 14.81532118 -22.25987982 11.26539352 -19.21484375 8.20703125 C-13.98545686 4.61932137 -6.51038862 0 0 0 Z " fill="#B60809" transform="translate(102,21)"/>
<path d="M0 0 C3.4375 0.9375 3.4375 0.9375 4.9375 2.6875 C5.56111086 5.49374887 5.36708326 7.22025664 4.4375 9.9375 C1.4375 11.9375 1.4375 11.9375 -1.625 11.75 C-4.5625 10.9375 -4.5625 10.9375 -6.5625 7.9375 C-6.91492362 5.11811103 -6.90895957 3.54889923 -5.5 1.0625 C-3.5625 -0.0625 -3.5625 -0.0625 0 0 Z " fill="#C9CACA" transform="translate(160.5625,80.0625)"/>
<path d="M0 0 C0.74507812 0.01353516 1.49015625 0.02707031 2.2578125 0.04101562 C4.08885416 0.07622796 5.91952169 0.13003149 7.75 0.1875 C8.08 0.8475 8.41 1.5075 8.75 2.1875 C5.46480525 3.28256492 3.01336585 3.28710608 -0.4375 3.25 C-2.06751953 3.23646484 -2.06751953 3.23646484 -3.73046875 3.22265625 C-4.56191406 3.21105469 -5.39335937 3.19945312 -6.25 3.1875 C-6.25 3.8475 -6.25 4.5075 -6.25 5.1875 C-4.93 5.5175 -3.61 5.8475 -2.25 6.1875 C-4.56 5.8575 -6.87 5.5275 -9.25 5.1875 C-9.25 10.1375 -9.25 15.0875 -9.25 20.1875 C-9.91 20.1875 -10.57 20.1875 -11.25 20.1875 C-12.75934217 17.16881565 -12.51580081 14.05941602 -12.5625 10.75 C-12.59150391 10.06873047 -12.62050781 9.38746094 -12.65039062 8.68554688 C-12.68912105 5.64371873 -12.62758008 3.67982519 -10.74609375 1.2265625 C-7.18067397 -0.25763416 -3.78831683 -0.13051622 0 0 Z " fill="#B91816" transform="translate(174.25,181.8125)"/>
<path d="M0 0 C1.28132812 0.00902344 2.56265625 0.01804688 3.8828125 0.02734375 C4.87023437 0.03894531 5.85765625 0.05054688 6.875 0.0625 C7.205 0.7225 7.535 1.3825 7.875 2.0625 C5.11047967 3.44476016 2.8288637 3.15775387 -0.25 3.125 C-1.34570312 3.11597656 -2.44140625 3.10695312 -3.5703125 3.09765625 C-4.41335937 3.08605469 -5.25640625 3.07445312 -6.125 3.0625 C-6.125 3.7225 -6.125 4.3825 -6.125 5.0625 C-2.495 5.0625 1.135 5.0625 4.875 5.0625 C4.875 5.3925 4.875 5.7225 4.875 6.0625 C1.245 6.0625 -2.385 6.0625 -6.125 6.0625 C-6.125 6.7225 -6.125 7.3825 -6.125 8.0625 C-6.785 8.0625 -7.445 8.0625 -8.125 8.0625 C-8.125 7.4025 -8.125 6.7425 -8.125 6.0625 C-8.785 6.0625 -9.445 6.0625 -10.125 6.0625 C-10.455 8.7025 -10.785 11.3425 -11.125 14.0625 C-11.785 14.0625 -12.445 14.0625 -13.125 14.0625 C-13.03766424 12.45732903 -12.92947776 10.85328338 -12.8125 9.25 C-12.75449219 8.35667969 -12.69648438 7.46335938 -12.63671875 6.54296875 C-12.0540429 3.71854766 -11.36414391 2.81511387 -9.125 1.0625 C-6.12186252 -0.43906874 -3.33432478 -0.03031204 0 0 Z " fill="#B80F0F" transform="translate(200.125,181.9375)"/>
<path d="M0 0 C0.66 0 1.32 0 2 0 C2.66 2.64 3.32 5.28 4 8 C4.66 8 5.32 8 6 8 C6 9.98 6 11.96 6 14 C6.66 14 7.32 14 8 14 C9.4606285 16.64738916 10 17.89448334 10 21 C10.66 21 11.32 21 12 21 C11.67 22.32 11.34 23.64 11 25 C11 24.34 11 23.68 11 23 C10.34 23 9.68 23 9 23 C9 23.66 9 24.32 9 25 C6.69 25 4.38 25 2 25 C2.66 24.34 3.32 23.68 4 23 C5.32 23 6.64 23 8 23 C7.50628906 22.09378906 7.01257813 21.18757813 6.50390625 20.25390625 C2.88784659 13.44114875 0.13577142 7.87474243 0 0 Z " fill="#C90F0E" transform="translate(57,108)"/>
<path d="M0 0 C5.94 0 11.88 0 18 0 C18.33 0.66 18.66 1.32 19 2 C18.01 2.33 17.02 2.66 16 3 C16 3.66 16 4.32 16 5 C14.84371094 5.07347656 14.84371094 5.07347656 13.6640625 5.1484375 C12.66117188 5.22320312 11.65828125 5.29796875 10.625 5.375 C9.62726563 5.44460937 8.62953125 5.51421875 7.6015625 5.5859375 C4.84491121 5.76363964 4.84491121 5.76363964 3 8 C3 6.35 3 4.7 3 3 C2.01 3.33 1.02 3.66 0 4 C0 2.68 0 1.36 0 0 Z " fill="#C81F23" transform="translate(62,182)"/>
<path d="M0 0 C0.66 0.33 1.32 0.66 2 1 C2 1.99 2 2.98 2 4 C1.34 4 0.68 4 0 4 C0 5.32 0 6.64 0 8 C-0.66 8 -1.32 8 -2 8 C-2 9.32 -2 10.64 -2 12 C-2.66 12 -3.32 12 -4 12 C-4 13.32 -4 14.64 -4 16 C-4.66 16 -5.32 16 -6 16 C-6.12375 16.86625 -6.2475 17.7325 -6.375 18.625 C-6.98058121 21.89513853 -7.88306035 24.87256899 -9 28 C-9.33 28 -9.66 28 -10 28 C-11.01762967 17.62017735 -6.45990145 7.93645035 0 0 Z " fill="#CB0A0A" transform="translate(67,45)"/>
<path d="M0 0 C0.33 0.66 0.66 1.32 1 2 C2.32 2 3.64 2 5 2 C5 2.66 5 3.32 5 4 C9.62 4 14.24 4 19 4 C19 3.34 19 2.68 19 2 C19.99 1.67 20.98 1.34 22 1 C22.625 2.875 22.625 2.875 23 5 C20.2366266 7.7633734 18.34452557 7.28850252 14.57226562 7.32226562 C13.32993164 7.31743164 13.32993164 7.31743164 12.0625 7.3125 C11.23814453 7.32861328 10.41378906 7.34472656 9.56445312 7.36132812 C8.77103516 7.36197266 7.97761719 7.36261719 7.16015625 7.36328125 C6.43449463 7.36626221 5.70883301 7.36924316 4.96118164 7.37231445 C2.39869634 6.88584737 1.51235272 6.10669335 0 4 C0 2.68 0 1.36 0 0 Z " fill="#C01F23" transform="translate(162,200)"/>
<path d="M0 0 C0.66 0 1.32 0 2 0 C2 0.66 2 1.32 2 2 C3.98 1.67 5.96 1.34 8 1 C1.83383571 6.20270112 -4.09854347 10.18924955 -12 12 C-12 11.01 -12 10.02 -12 9 C-9.8828125 7.24609375 -9.8828125 7.24609375 -7.125 5.4375 C-3.36555212 2.96057841 -3.36555212 2.96057841 0 0 Z " fill="#170B0B" transform="translate(162,158)"/>
<path d="M0 0 C0.99 0 1.98 0 3 0 C0.88984345 8.22961053 -4.06713345 14.61006079 -10.38671875 20.1015625 C-10.91910156 20.39804688 -11.45148438 20.69453125 -12 21 C-12.99 20.67 -13.98 20.34 -15 20 C-15 19.01 -15 18.02 -15 17 C-13.68 17 -12.36 17 -11 17 C-11 16.34 -11 15.68 -11 15 C-10.34 15 -9.68 15 -9 15 C-9 14.34 -9 13.68 -9 13 C-8.34 13 -7.68 13 -7 13 C-7 12.34 -7 11.68 -7 11 C-6.34 11 -5.68 11 -5 11 C-4.67 9.68 -4.34 8.36 -4 7 C-3.34 7 -2.68 7 -2 7 C-2 5.68 -2 4.36 -2 3 C-1.34 3 -0.68 3 0 3 C0 2.01 0 1.02 0 0 Z " fill="#D20A0D" transform="translate(145,126)"/>
<path d="M0 0 C0.66 0 1.32 0 2 0 C2 8.91 2 17.82 2 27 C1.01 26.67 0.02 26.34 -1 26 C-1.02886751 21.85418113 -1.04675327 17.70838784 -1.0625 13.5625 C-1.07087891 12.37849609 -1.07925781 11.19449219 -1.08789062 9.97460938 C-1.09111328 8.84990234 -1.09433594 7.72519531 -1.09765625 6.56640625 C-1.10289307 5.52427979 -1.10812988 4.48215332 -1.11352539 3.40844727 C-1 1 -1 1 0 0 Z " fill="#D20C0B" transform="translate(55,76)"/>
<path d="M0 0 C4 6 4 6 4 10 C5.37285156 9.96519531 5.37285156 9.96519531 6.7734375 9.9296875 C7.96195313 9.91164062 9.15046875 9.89359375 10.375 9.875 C11.55835938 9.85179687 12.74171875 9.82859375 13.9609375 9.8046875 C17 10 17 10 19 12 C16.25048889 12.24913692 13.5023728 12.47491836 10.75 12.6875 C9.97269531 12.76033203 9.19539062 12.83316406 8.39453125 12.90820312 C4.91061208 13.16130836 2.65994922 13.31775333 -0.53125 11.78125 C-3.09741517 8.66909225 -2.25579299 5.90084303 -2 2 C-1.34 2 -0.68 2 0 2 C0 1.34 0 0.68 0 0 Z " fill="#BD1918" transform="translate(189,194)"/>
<path d="M0 0 C11.88 0 23.76 0 36 0 C36 0.66 36 1.32 36 2 C30.39 2 24.78 2 19 2 C19 2.99 19 3.98 19 5 C18.34 5 17.68 5 17 5 C17 4.34 17 3.68 17 3 C11.39 2.67 5.78 2.34 0 2 C0 1.34 0 0.68 0 0 Z " fill="#F7A19E" transform="translate(93,201)"/>
<path d="M0 0 C0.99 0 1.98 0 3 0 C3 5.94 3 11.88 3 18 C3.66 18 4.32 18 5 18 C4.34 19.32 3.68 20.64 3 22 C1.68 21.67 0.36 21.34 -1 21 C-0.67 14.07 -0.34 7.14 0 0 Z " fill="#C90E0D" transform="translate(55,184)"/>
<path d="M0 0 C1.76923828 0.04060547 1.76923828 0.04060547 3.57421875 0.08203125 C4.47785156 0.11683594 5.38148438 0.15164062 6.3125 0.1875 C6.3125 1.8375 6.3125 3.4875 6.3125 5.1875 C1.3625 5.1875 -3.5875 5.1875 -8.6875 5.1875 C-9.0175 4.5275 -9.3475 3.8675 -9.6875 3.1875 C-6.99455929 -0.5165087 -4.35133403 -0.12924755 0 0 Z " fill="#CB2B28" transform="translate(148.6875,201.8125)"/>
<path d="M0 0 C0.99 0.33 1.98 0.66 3 1 C3 1.99 3 2.98 3 4 C7.29 4.33 11.58 4.66 16 5 C16 5.33 16 5.66 16 6 C11.05 6 6.1 6 1 6 C1.33 6.66 1.66 7.32 2 8 C2.06950541 9.54023996 2.08452357 11.08334988 2.0625 12.625 C2.05347656 13.44226563 2.04445312 14.25953125 2.03515625 15.1015625 C2.02355469 15.72804687 2.01195312 16.35453125 2 17 C2.99 17.33 3.98 17.66 5 18 C3.02 18.99 3.02 18.99 1 20 C-0.9126443 15.25489009 -1.10351618 11.6972715 -0.625 6.625 C-0.51414063 5.37976563 -0.40328125 4.13453125 -0.2890625 2.8515625 C-0.19367188 1.91054687 -0.09828125 0.96953125 0 0 Z " fill="#BB1211" transform="translate(137,186)"/>
<path d="M0 0 C-0.875 5.75 -0.875 5.75 -2 8 C-1.34 8.33 -0.68 8.66 0 9 C-1.28062485 10.7074998 -2.61767557 12.37373596 -4 14 C-4.66 14 -5.32 14 -6 14 C-5.42415568 11.61435923 -4.77772405 9.33317216 -4 7 C-4.66 7 -5.32 7 -6 7 C-6 7.66 -6 8.32 -6 9 C-6.66 9 -7.32 9 -8 9 C-8 9.66 -8 10.32 -8 11 C-8.66 11 -9.32 11 -10 11 C-10.33 11.66 -10.66 12.32 -11 13 C-11 9 -11 9 -8.75 6.5 C-7.8425 5.675 -6.935 4.85 -6 4 C-5.278125 3.236875 -4.55625 2.47375 -3.8125 1.6875 C-2 0 -2 0 0 0 Z " fill="#CC0D0E" transform="translate(81,32)"/>
<path d="M0 0 C0.66 0 1.32 0 2 0 C3.25433458 3.76300374 3.10695422 7.27210909 3.0625 11.1875 C3.05798828 11.93708984 3.05347656 12.68667969 3.04882812 13.45898438 C3.03706354 15.30602383 3.01912865 17.15302213 3 19 C7.95 19 12.9 19 18 19 C18 19.33 18 19.66 18 20 C12.72 20 7.44 20 2 20 C2 19.34 2 18.68 2 18 C1.34 18 0.68 18 0 18 C0 12.06 0 6.12 0 0 Z " fill="#E65754" transform="translate(90,184)"/>
<path d="M0 0 C0.66 0.33 1.32 0.66 2 1 C2.625 4.0625 2.625 4.0625 3 7 C3.33 5.02 3.66 3.04 4 1 C4.33 1 4.66 1 5 1 C5 4.63 5 8.26 5 12 C4.67 12 4.34 12 4 12 C4 14.64 4 17.28 4 20 C3.01 20 2.02 20 1 20 C1 16.04 1 12.08 1 8 C0.34 8 -0.32 8 -1 8 C-1.04241723 5.66705225 -1.04092937 3.33297433 -1 1 C-0.67 0.67 -0.34 0.34 0 0 Z M-3 8 C-2.34 8.33 -1.68 8.66 -1 9 C-1.33 9.66 -1.66 10.32 -2 11 C-2.66 10.67 -3.32 10.34 -4 10 C-3.67 9.34 -3.34 8.68 -3 8 Z " fill="#C82422" transform="translate(82,184)"/>
<path d="M0 0 C0.66 0 1.32 0 2 0 C3.22691067 2.45382134 3.20175931 4.19984103 3.25 6.9375 C3.28867188 8.25041016 3.28867188 8.25041016 3.328125 9.58984375 C3 12 3 12 1.671875 13.81640625 C0 15 0 15 -3 15 C-2.22095672 4.44191344 -2.22095672 4.44191344 0 0 Z " fill="#C5120F" transform="translate(158,192)"/>
<path d="M0 0 C4.95 0 9.9 0 15 0 C15.33 1.65 15.66 3.3 16 5 C11.38 5 6.76 5 2 5 C2 4.34 2 3.68 2 3 C1.34 2.67 0.68 2.34 0 2 C0 1.34 0 0.68 0 0 Z " fill="#C22828" transform="translate(115,182)"/>
<path d="M0 0 C0.66 0 1.32 0 2 0 C2.06058594 0.92683594 2.12117187 1.85367188 2.18359375 2.80859375 C2.26738281 4.00613281 2.35117188 5.20367187 2.4375 6.4375 C2.51871094 7.63246094 2.59992188 8.82742187 2.68359375 10.05859375 C2.67656114 12.88570244 2.67656114 12.88570244 4 14 C6.01594582 14.23427778 8.038474 14.41336124 10.0625 14.5625 C11.16722656 14.64628906 12.27195313 14.73007813 13.41015625 14.81640625 C14.69212891 14.90728516 14.69212891 14.90728516 16 15 C16 15.66 16 16.32 16 17 C11.38 17 6.76 17 2 17 C2 16.34 2 15.68 2 15 C1.34 15 0.68 15 0 15 C0 10.05 0 5.1 0 0 Z " fill="#CF2D33" transform="translate(165,187)"/>
<path d="M0 0 C2.375 -0.1875 2.375 -0.1875 5 0 C7 3 7 3 6.625 5.6875 C6.41875 6.450625 6.2125 7.21375 6 8 C4.35 8.33 2.7 8.66 1 9 C-0.625 7.3125 -0.625 7.3125 -2 5 C-1.1875 2.25 -1.1875 2.25 0 0 Z " fill="#CBCACA" transform="translate(168,92)"/>
<path d="M0 0 C1.53445094 3.06890187 0.54984289 5.70094266 0 9 C-3.96 9 -7.92 9 -12 9 C-12 8.34 -12 7.68 -12 7 C-10.02 6.67 -8.04 6.34 -6 6 C-8.64 5.67 -11.28 5.34 -14 5 C-14 4.67 -14 4.34 -14 4 C-10.37 4 -6.74 4 -3 4 C-3.33 3.01 -3.66 2.02 -4 1 C-2.68 0.67 -1.36 0.34 0 0 Z " fill="#D50C0D" transform="translate(81,183)"/>
<path d="M0 0 C2.31 0.33 4.62 0.66 7 1 C6.34 1.66 5.68 2.32 5 3 C6.65 3.33 8.3 3.66 10 4 C10 3.34 10 2.68 10 2 C10.66 2 11.32 2 12 2 C11.67 3.32 11.34 4.64 11 6 C6.38 6 1.76 6 -3 6 C-3.33 4.68 -3.66 3.36 -4 2 C-2.68 2 -1.36 2 0 2 C0 1.34 0 0.68 0 0 Z " fill="#EA090D" transform="translate(56,129)"/>
<path d="M0 0 C5.94 0 11.88 0 18 0 C17.67 0.99 17.34 1.98 17 3 C11.39 3 5.78 3 0 3 C0 2.01 0 1.02 0 0 Z " fill="#C01512" transform="translate(89,153)"/>
<path d="M0 0 C-1.38892624 3.33628673 -2.83572224 4.93674362 -5.875 6.875 C-6.55304688 7.32617188 -7.23109375 7.77734375 -7.9296875 8.2421875 C-10 9 -10 9 -12.2578125 8.1328125 C-12.83273438 7.75898438 -13.40765625 7.38515625 -14 7 C-14 6.34 -14 5.68 -14 5 C-12.75264433 4.3490741 -11.50198168 3.70448331 -10.25 3.0625 C-9.55390625 2.70285156 -8.8578125 2.34320312 -8.140625 1.97265625 C-5.41232415 0.7329721 -3.00198386 0 0 0 Z " fill="#8E1416" transform="translate(102,21)"/>
<path d="M0 0 C2 3 2 3 1.625 5.1875 C1.41875 5.785625 1.2125 6.38375 1 7 C0.34 7 -0.32 7 -1 7 C-1.33 8.65 -1.66 10.3 -2 12 C-6.62 12 -11.24 12 -16 12 C-16 11.34 -16 10.68 -16 10 C-11.38 9.67 -6.76 9.34 -2 9 C-2.33 7.68 -2.66 6.36 -3 5 C-1.5625 2.25 -1.5625 2.25 0 0 Z " fill="#CD4F51" transform="translate(159,185)"/>
<path d="M0 0 C1.05960938 0.00676758 1.05960938 0.00676758 2.140625 0.01367188 C3.88545275 0.02546125 5.630237 0.04339676 7.375 0.0625 C7.375 1.0525 7.375 2.0425 7.375 3.0625 C-0.545 3.5575 -0.545 3.5575 -8.625 4.0625 C-8.955 3.0725 -9.285 2.0825 -9.625 1.0625 C-6.55966836 -0.47016582 -3.35745728 -0.04026471 0 0 Z " fill="#B61617" transform="translate(148.625,181.9375)"/>
<path d="M0 0 C1.2065625 0.0309375 1.2065625 0.0309375 2.4375 0.0625 C3.5 2.4375 3.5 2.4375 4.4375 5.0625 C3.4375 7.0625 3.4375 7.0625 1.5625 7.8125 C-0.5625 8.0625 -0.5625 8.0625 -3.5625 6.0625 C-3.8125 3.5 -3.8125 3.5 -3.5625 1.0625 C-2.5625 0.0625 -2.5625 0.0625 0 0 Z " fill="#CAC4C2" transform="translate(79.5625,88.9375)"/>
<path d="M0 0 C0.66 0 1.32 0 2 0 C2 0.66 2 1.32 2 2 C3.98 2 5.96 2 8 2 C8 2.66 8 3.32 8 4 C9.32 4.33 10.64 4.66 12 5 C12 5.66 12 6.32 12 7 C13.32 6.67 14.64 6.34 16 6 C16 6.66 16 7.32 16 8 C10.39233599 7.50809965 5.96221822 6.73428351 1 4 C0.0625 1.8125 0.0625 1.8125 0 0 Z " fill="#C20D0A" transform="translate(65,145)"/>
<path d="M0 0 C0.99 0 1.98 0 3 0 C5.98159981 6.61137349 7.14408426 11.65170258 7 19 C6.34 19 5.68 19 5 19 C5 16.03 5 13.06 5 10 C4.34 10 3.68 10 3 10 C3 8.02 3 6.04 3 4 C2.34 4 1.68 4 1 4 C1 3.34 1 2.68 1 2 C0.34 1.67 -0.32 1.34 -1 1 C-0.67 0.67 -0.34 0.34 0 0 Z " fill="#C5312D" transform="translate(142,104)"/>
<path d="M0 0 C0.66 1.32 1.32 2.64 2 4 C-4.6 3.67 -11.2 3.34 -18 3 C-18 2.34 -18 1.68 -18 1 C-12.06 0.67 -6.12 0.34 0 0 Z " fill="#B3201E" transform="translate(130,203)"/>
<path d="M0 0 C0.66 0.66 1.32 1.32 2 2 C1.34 2 0.68 2 0 2 C0 4.31 0 6.62 0 9 C-2 8 -2 8 -3 5 C-6.63 4.67 -10.26 4.34 -14 4 C-14 3.34 -14 2.68 -14 2 C-13.15695313 1.93941406 -12.31390625 1.87882813 -11.4453125 1.81640625 C-10.34960938 1.73261719 -9.25390625 1.64882812 -8.125 1.5625 C-7.03445312 1.48128906 -5.94390625 1.40007812 -4.8203125 1.31640625 C-2.05271029 1.16998297 -2.05271029 1.16998297 0 0 Z " fill="#DA1D23" transform="translate(208,183)"/>
<path d="M0 0 C0.33 0 0.66 0 1 0 C1 2.64 1 5.28 1 8 C5.62 8 10.24 8 15 8 C15 8.99 15 9.98 15 11 C12.68756208 11.02685412 10.3750373 11.04632841 8.0625 11.0625 C6.77472656 11.07410156 5.48695312 11.08570313 4.16015625 11.09765625 C1 11 1 11 0 10 C-0.07205511 8.31391034 -0.08386068 6.62499341 -0.0625 4.9375 C-0.05347656 4.01839844 -0.04445313 3.09929687 -0.03515625 2.15234375 C-0.02355469 1.44207031 -0.01195313 0.73179687 0 0 Z " fill="#DF494B" transform="translate(65,193)"/>
<path d="M0 0 C0.66 0.66 1.32 1.32 2 2 C0.35 7.94 -1.3 13.88 -3 20 C-3.33 20 -3.66 20 -4 20 C-4.2361959 13.59646678 -3.823321 8.15370839 -2 2 C-1.34 2 -0.68 2 0 2 C0 1.34 0 0.68 0 0 Z " fill="#D01F20" transform="translate(69,55)"/>
<path d="M0 0 C0.66 0 1.32 0 2 0 C2 0.66 2 1.32 2 2 C2.66 1.67 3.32 1.34 4 1 C6.04055005 0.92934383 8.08334257 0.91578024 10.125 0.9375 C11.22070312 0.94652344 12.31640625 0.95554688 13.4453125 0.96484375 C14.28835937 0.97644531 15.13140625 0.98804688 16 1 C16 1.66 16 2.32 16 3 C12.37 3 8.74 3 5 3 C5 3.99 5 4.98 5 6 C4.01 6 3.02 6 2 6 C1.34 4.02 0.68 2.04 0 0 Z " fill="#D62927" transform="translate(138,184)"/>
<path d="M0 0 C1.65 0 3.3 0 5 0 C3.68 0.33 2.36 0.66 1 1 C1 7.6 1 14.2 1 21 C0.01 20.34 -0.98 19.68 -2 19 C-2.1875 15.375 -2.1875 15.375 -2 12 C-1.67 12 -1.34 12 -1 12 C-1.01160156 11.30132812 -1.02320312 10.60265625 -1.03515625 9.8828125 C-1.04417969 8.97273437 -1.05320312 8.06265625 -1.0625 7.125 C-1.07410156 6.22007812 -1.08570312 5.31515625 -1.09765625 4.3828125 C-1 2 -1 2 0 0 Z " fill="#E64949" transform="translate(87,182)"/>
<path d="M0 0 C4.62 0 9.24 0 14 0 C13.67 0.99 13.34 1.98 13 3 C9.04 3 5.08 3 1 3 C0.67 2.01 0.34 1.02 0 0 Z " fill="#A71C15" transform="translate(65,192)"/>
<path d="M0 0 C4.62 0 9.24 0 14 0 C14 0.33 14 0.66 14 1 C10.04 1 6.08 1 2 1 C2 3.31 2 5.62 2 8 C0.68 8.33 -0.64 8.66 -2 9 C-1.125 2.25 -1.125 2.25 0 0 Z " fill="#CC181A" transform="translate(141,194)"/>
<path d="M0 0 C0.66 0 1.32 0 2 0 C2 3.96 2 7.92 2 12 C2.66 12.33 3.32 12.66 4 13 C3.01 13 2.02 13 1 13 C-1.60585556 9.09121666 -1.22321871 5.53878034 -1 1 C-0.67 0.67 -0.34 0.34 0 0 Z " fill="#DA3F3C" transform="translate(81,192)"/>
<path d="M0 0 C1.23556641 0.01740234 1.23556641 0.01740234 2.49609375 0.03515625 C3.32238281 0.04417969 4.14867188 0.05320313 5 0.0625 C5.63808594 0.07410156 6.27617188 0.08570313 6.93359375 0.09765625 C6.93359375 0.75765625 6.93359375 1.41765625 6.93359375 2.09765625 C7.92359375 2.42765625 8.91359375 2.75765625 9.93359375 3.09765625 C6.63359375 3.42765625 3.33359375 3.75765625 -0.06640625 4.09765625 C-0.06640625 3.43765625 -0.06640625 2.77765625 -0.06640625 2.09765625 C-1.05640625 1.76765625 -2.04640625 1.43765625 -3.06640625 1.09765625 C-2.06640625 0.09765625 -2.06640625 0.09765625 0 0 Z " fill="#EA0506" transform="translate(107.06640625,150.90234375)"/>
<path d="M0 0 C2.91517292 1.07401108 4.77810176 1.77810176 7 4 C6.34 5.32 5.68 6.64 5 8 C3.68 7.67 2.36 7.34 1 7 C0.67 4.69 0.34 2.38 0 0 Z " fill="#AA1E1F" transform="translate(46,124)"/>
<path d="M0 0 C0.66 0 1.32 0 2 0 C2.66 2.64 3.32 5.28 4 8 C4.66 8 5.32 8 6 8 C5.67 9.32 5.34 10.64 5 12 C4.01 12 3.02 12 2 12 C0.40861915 7.82262526 -0.21278058 4.46839215 0 0 Z " fill="#CE1417" transform="translate(57,108)"/>
<path d="M0 0 C1.32 0 2.64 0 4 0 C4 6.6 4 13.2 4 20 C3.34 20 2.68 20 2 20 C2 14.06 2 8.12 2 2 C1.01 1.67 0.02 1.34 -1 1 C-0.67 0.67 -0.34 0.34 0 0 Z " fill="#B52B2D" transform="translate(56,182)"/>
<path d="M0 0 C0.66 0 1.32 0 2 0 C2.66 1.98 3.32 3.96 4 6 C3.34 6 2.68 6 2 6 C2.33 8.31 2.66 10.62 3 13 C2.01 13.495 2.01 13.495 1 14 C0.63659714 12.23103898 0.28459117 10.45973374 -0.0625 8.6875 C-0.25972656 7.70136719 -0.45695313 6.71523437 -0.66015625 5.69921875 C-1 3 -1 3 0 0 Z " fill="#DD1618" transform="translate(190,188)"/>
<path d="M0 0 C1.9375 0.3125 1.9375 0.3125 4 1 C4.33 1.99 4.66 2.98 5 4 C5.66 3.01 6.32 2.02 7 1 C7.33 2.32 7.66 3.64 8 5 C7.34 5 6.68 5 6 5 C6 5.66 6 6.32 6 7 C4.35 7.33 2.7 7.66 1 8 C0.67 5.36 0.34 2.72 0 0 Z " fill="#D60C0D" transform="translate(110,187)"/>
<path d="M0 0 C2.97 0 5.94 0 9 0 C8.67 1.32 8.34 2.64 8 4 C4.7 3.67 1.4 3.34 -2 3 C-1.34 2.67 -0.68 2.34 0 2 C0 1.34 0 0.68 0 0 Z " fill="#DE0509" transform="translate(81,151)"/>
<path d="M0 0 C3.96 0 7.92 0 12 0 C12 0.99 12 1.98 12 3 C7.71 3 3.42 3 -1 3 C-0.67 2.01 -0.34 1.02 0 0 Z " fill="#E96461" transform="translate(42,201)"/>
<path d="M0 0 C0.33 0 0.66 0 1 0 C1 3.3 1 6.6 1 10 C2.32 10.33 3.64 10.66 5 11 C4.34 12.32 3.68 13.64 3 15 C1.68 14.67 0.36 14.34 -1 14 C-0.67 9.38 -0.34 4.76 0 0 Z " fill="#C21516" transform="translate(55,191)"/>
<path d="M0 0 C2.7972908 2.06756277 3.02692273 3.14440371 3.6875 6.6875 C3.790625 7.780625 3.89375 8.87375 4 10 C3.34 10 2.68 10 2 10 C1.67 10.66 1.34 11.32 1 12 C0.63762737 10.37681021 0.28534843 8.7513642 -0.0625 7.125 C-0.25972656 6.22007812 -0.45695313 5.31515625 -0.66015625 4.3828125 C-1 2 -1 2 0 0 Z " fill="#CD4345" transform="translate(133,193)"/>
<path d="M0 0 C0.99 0.495 0.99 0.495 2 1 C2.62669199 3.16467461 3.15427374 5.35864524 3.625 7.5625 C3.88539062 8.76003906 4.14578125 9.95757812 4.4140625 11.19140625 C4.60742188 12.11824219 4.80078125 13.04507813 5 14 C4.01 14 3.02 14 2 14 C0.02905192 9.07262981 -0.1799928 5.21979128 0 0 Z " fill="#CD1F21" transform="translate(65,86)"/>
<path d="M0 0 C0.66 0 1.32 0 2 0 C2 4.62 2 9.24 2 14 C1.34 14 0.68 14 0 14 C-1.03115279 10.73086376 -0.9638984 8.13958652 -0.5625 4.75 C-0.46066406 3.85796875 -0.35882813 2.9659375 -0.25390625 2.046875 C-0.17011719 1.37140625 -0.08632812 0.6959375 0 0 Z " fill="#D00E13" transform="translate(163,188)"/>
<path d="M0 0 C0.66 0 1.32 0 2 0 C2 0.66 2 1.32 2 2 C3.98 1.67 5.96 1.34 8 1 C5.11912454 3.40072955 2.43595166 5.47291037 -1 7 C-1.04254356 5.00045254 -1.04080783 2.99958364 -1 1 C-0.67 0.67 -0.34 0.34 0 0 Z " fill="#2E2727" transform="translate(162,158)"/>
<path d="M0 0 C0.66 0 1.32 0 2 0 C1.67 1.32 1.34 2.64 1 4 C0.34 4 -0.32 4 -1 4 C-1 4.66 -1 5.32 -1 6 C-1.66 6 -2.32 6 -3 6 C-3 6.66 -3 7.32 -3 8 C-3.66 8 -4.32 8 -5 8 C-5.33 8.66 -5.66 9.32 -6 10 C-6 6 -6 6 -3.5625 3.3125 C-2.716875 2.549375 -1.87125 1.78625 -1 1 C-0.67 0.67 -0.34 0.34 0 0 Z " fill="#BA0B0B" transform="translate(76,35)"/>
<path d="M0 0 C0.33 0 0.66 0 1 0 C1.36601307 7.4422658 1.36601307 7.4422658 -0.3125 10 C-2 11 -2 11 -5 11 C-5 10.01 -5 9.02 -5 8 C-3.68 7.67 -2.36 7.34 -1 7 C-1.020625 6.030625 -1.04125 5.06125 -1.0625 4.0625 C-1 1 -1 1 0 0 Z " fill="#B1130E" transform="translate(160,196)"/>
<path d="M0 0 C0.99 0 1.98 0 3 0 C1.8905928 3.48670834 0.73662334 6.77484237 -1 10 C-1.99 9.67 -2.98 9.34 -4 9 C-4 8.34 -4 7.68 -4 7 C-3.34 7 -2.68 7 -2 7 C-2 5.68 -2 4.36 -2 3 C-1.34 3 -0.68 3 0 3 C0 2.01 0 1.02 0 0 Z " fill="#D22125" transform="translate(145,126)"/>
<path d="M0 0 C0.99 0 1.98 0 3 0 C3.125 7.75 3.125 7.75 2 10 C1.34 10 0.68 10 0 10 C0 6.7 0 3.4 0 0 Z " fill="#BB1718" transform="translate(208,185)"/>
<path d="M0 0 C0.66 0 1.32 0 2 0 C2.33 3.96 2.66 7.92 3 12 C2.01 12 1.02 12 0 12 C0 8.04 0 4.08 0 0 Z " fill="#E20809" transform="translate(145,114)"/>
<path d="M0 0 C3.96 0 7.92 0 12 0 C12 0.66 12 1.32 12 2 C3.42857143 3.28571429 3.42857143 3.28571429 0 2 C0 1.34 0 0.68 0 0 Z " fill="#E32F24" transform="translate(168,185)"/>
<path d="M0 0 C4.29 0.33 8.58 0.66 13 1 C13 1.33 13 1.66 13 2 C12.00419922 2.09087891 12.00419922 2.09087891 10.98828125 2.18359375 C4.45091919 2.79863507 4.45091919 2.79863507 -2 4 C-1.34 2.68 -0.68 1.36 0 0 Z " fill="#EB1516" transform="translate(95,123)"/>
<path d="M0 0 C1.32 1.32 2.64 2.64 4 4 C2.02 4 0.04 4 -2 4 C-2 4.66 -2 5.32 -2 6 C-2.99 5.67 -3.98 5.34 -5 5 C-4 2 -4 2 -1.9375 0.8125 C-1.298125 0.544375 -0.65875 0.27625 0 0 Z " fill="#BF171A" transform="translate(87,27)"/>
<path d="M0 0 C0 2.97 0 5.94 0 9 C-0.99 8.67 -1.98 8.34 -3 8 C-3 5.69 -3 3.38 -3 1 C-1 0 -1 0 0 0 Z " fill="#CD0C0D" transform="translate(212,195)"/>
<path d="M0 0 C1.5 1.125 1.5 1.125 3 3 C3.1875 6.1875 3.1875 6.1875 3 9 C2.01 9.495 2.01 9.495 1 10 C1 9.34 1 8.68 1 8 C0.34 8 -0.32 8 -1 8 C-0.67 5.36 -0.34 2.72 0 0 Z " fill="#E10406" transform="translate(56,68)"/>
<path d="M0 0 C0.99 0.66 1.98 1.32 3 2 C3 2.99 3 3.98 3 5 C0.36 4.67 -2.28 4.34 -5 4 C-5 3.34 -5 2.68 -5 2 C-2.6875 0.875 -2.6875 0.875 0 0 Z " fill="#CF0C0F" transform="translate(205,190)"/>
<path d="M0 0 C1.32 0 2.64 0 4 0 C4 0.99 4 1.98 4 3 C1.29120665 4.35439668 -1.00933268 4.06501451 -4 4 C-4 3.34 -4 2.68 -4 2 C-2.68 2 -1.36 2 0 2 C0 1.34 0 0.68 0 0 Z " fill="#C61110" transform="translate(124,147)"/>
<path d="M0 0 C1.32 0 2.64 0 4 0 C4.33 1.65 4.66 3.3 5 5 C4.01 5.33 3.02 5.66 2 6 C2 5.34 2 4.68 2 4 C1.34 4 0.68 4 0 4 C0 2.68 0 1.36 0 0 Z " fill="#E50704" transform="translate(126,143)"/>
<path d="M0 0 C0 0.66 0 1.32 0 2 C-1.98 2.66 -3.96 3.32 -6 4 C-6 3.34 -6 2.68 -6 2 C-7.98 2 -9.96 2 -12 2 C-12 1.67 -12 1.34 -12 1 C-7.95858806 0.36605303 -4.0934693 -0.12404452 0 0 Z " fill="#D40305" transform="translate(120,123)"/>
<path d="M0 0 C0 0.66 0 1.32 0 2 C-0.66 2 -1.32 2 -2 2 C-2 2.66 -2 3.32 -2 4 C-2.66 4 -3.32 4 -4 4 C-4.33 4.99 -4.66 5.98 -5 7 C-5.99 6.34 -6.98 5.68 -8 5 C-3.375 0 -3.375 0 0 0 Z " fill="#C40606" transform="translate(139,109)"/>
<path d="M0 0 C0.66 1.32 1.32 2.64 2 4 C0.02 4.66 -1.96 5.32 -4 6 C-4 5.01 -4 4.02 -4 3 C-2 1.3125 -2 1.3125 0 0 Z " fill="#4F3333" transform="translate(154,164)"/>
<path d="M0 0 C0.99 0.33 1.98 0.66 3 1 C3 1.66 3 2.32 3 3 C3.99 3.33 4.98 3.66 6 4 C5.67 5.32 5.34 6.64 5 8 C3.5 6.625 3.5 6.625 2 5 C2 4.34 2 3.68 2 3 C1.34 3 0.68 3 0 3 C0 2.01 0 1.02 0 0 Z " fill="#C21516" transform="translate(71,105)"/>
<path d="M0 0 C-0.75 1.9375 -0.75 1.9375 -2 4 C-4.125 4.75 -4.125 4.75 -6 5 C-6 4.34 -6 3.68 -6 3 C-6.66 2.67 -7.32 2.34 -8 2 C-2.25 0 -2.25 0 0 0 Z " fill="#702C2C" transform="translate(102,21)"/>
<path d="M0 0 C1.32 0.33 2.64 0.66 4 1 C4 2.32 4 3.64 4 5 C3.34 5 2.68 5 2 5 C1.67 5.99 1.34 6.98 1 8 C0.67 5.36 0.34 2.72 0 0 Z " fill="#E20407" transform="translate(55,103)"/>
<path d="M0 0 C0.66 0 1.32 0 2 0 C3.125 3.75 3.125 3.75 2 6 C1.01 5.67 0.02 5.34 -1 5 C-1 1 -1 1 0 0 Z " fill="#C0B7B8" transform="translate(81,90)"/>
<path d="M0 0 C4.29 0.33 8.58 0.66 13 1 C13 1.33 13 1.66 13 2 C9.7 2 6.4 2 3 2 C3 2.66 3 3.32 3 4 C2.01 3.67 1.02 3.34 0 3 C0 2.01 0 1.02 0 0 Z " fill="#AF1D1D" transform="translate(113,193)"/>
<path d="M0 0 C1.32 0.33 2.64 0.66 4 1 C4.33 2.32 4.66 3.64 5 5 C4.01 5.33 3.02 5.66 2 6 C1.34 4.02 0.68 2.04 0 0 Z " fill="#DA0906" transform="translate(67,100)"/>
<path d="M0 0 C2.97 0 5.94 0 9 0 C9 0.66 9 1.32 9 2 C6.36 2.33 3.72 2.66 1 3 C0.67 2.01 0.34 1.02 0 0 Z " fill="#323232" transform="translate(138,64)"/>
<path d="M0 0 C1.98 0 3.96 0 6 0 C6.33 1.32 6.66 2.64 7 4 C4.625 3.6875 4.625 3.6875 2 3 C1.34 2.01 0.68 1.02 0 0 Z " fill="#141414" transform="translate(195,60)"/>
<path d="M0 0 C1.98 0.495 1.98 0.495 4 1 C3.67 1.66 3.34 2.32 3 3 C3.99 3.33 4.98 3.66 6 4 C4.02 4.33 2.04 4.66 0 5 C-0.33 4.34 -0.66 3.68 -1 3 C-0.67 2.01 -0.34 1.02 0 0 Z " fill="#C3131B" transform="translate(38,201)"/>
<path d="M0 0 C0.66 0 1.32 0 2 0 C2.625 1.8125 2.625 1.8125 3 4 C2.01 5.485 2.01 5.485 1 7 C0.34 7 -0.32 7 -1 7 C-0.67 4.69 -0.34 2.38 0 0 Z " fill="#D50C16" transform="translate(158,192)"/>
<path d="M0 0 C1.32 0.33 2.64 0.66 4 1 C4 1.66 4 2.32 4 3 C2.68 3 1.36 3 0 3 C-0.33 3.99 -0.66 4.98 -1 6 C-1.66 6 -2.32 6 -3 6 C-3 5.34 -3 4.68 -3 4 C-2.34 4 -1.68 4 -1 4 C-0.67 2.68 -0.34 1.36 0 0 Z " fill="#D31C20" transform="translate(52,128)"/>
<path d="M0 0 C1 3 1 3 -0.4375 6.1875 C-1.2109375 7.5796875 -1.2109375 7.5796875 -2 9 C-2.66 8.67 -3.32 8.34 -4 8 C-3.34 6.02 -2.68 4.04 -2 2 C-1.34 2 -0.68 2 0 2 C0 1.34 0 0.68 0 0 Z " fill="#CA0B0E" transform="translate(73,47)"/>
<path d="M0 0 C1.65 0 3.3 0 5 0 C5 0.99 5 1.98 5 3 C3.02 3 1.04 3 -1 3 C-0.67 2.01 -0.34 1.02 0 0 Z " fill="#D30506" transform="translate(108,152)"/>
<path d="M0 0 C1.98 0.99 3.96 1.98 6 3 C5.01 3.33 4.02 3.66 3 4 C3 4.66 3 5.32 3 6 C2.34 6 1.68 6 1 6 C1 5.34 1 4.68 1 4 C0.34 3.67 -0.32 3.34 -1 3 C-0.67 2.01 -0.34 1.02 0 0 Z " fill="#DC0703" transform="translate(84,117)"/>
<path d="M0 0 C-1.25 1.5 -1.25 1.5 -3 3 C-4.32 3 -5.64 3 -7 3 C-7 2.34 -7 1.68 -7 1 C-3.375 -1.125 -3.375 -1.125 0 0 Z " fill="#0D0D0D" transform="translate(130,68)"/>
</svg>
